<?xml version="1.0" encoding="UTF-8"?>
<!DOCTYPE svg PUBLIC "-//W3C//DTD SVG 1.1//EN" "http://www.w3.org/Graphics/SVG/1.1/DTD/svg11.dtd">
<!-- Creator: CorelDRAW X8 -->
<svg xmlns="http://www.w3.org/2000/svg" xml:space="preserve" width="19.4094in" height="16.6535in" version="1.1" style="shape-rendering:geometricPrecision; text-rendering:geometricPrecision; image-rendering:optimizeQuality; fill-rule:evenodd; clip-rule:evenodd"
viewBox="0 0 19409 16654"
 xmlns:xlink="http://www.w3.org/1999/xlink">
 <defs>
  <style type="text/css">
   <![CDATA[
    .fil0 {fill:#316C2E}
   ]]>
  </style>
 </defs>
 <g id="Layer_x0020_1">
  <metadata id="CorelCorpID_0Corel-Layer"/>
  <path class="fil0" d="M6255 14892c362,-643 -517,-431 1123,-527 498,-29 1337,30 1884,30 614,1 1274,-34 1875,-27 1530,18 1199,144 1423,524 -369,671 935,526 -3034,518 -4346,-9 -2808,-117 -3271,-518zm893 -1324c310,-598 -672,-477 2112,-461 3010,17 2043,-212 2407,461 -668,467 -3751,564 -4519,0zm4745 -5031c-1,-1178 -329,-2370 546,-2968 854,617 727,2930 296,3805 -763,1550 -1386,380 -1370,3205l-3821 -60 -530 -3586 3042 -11 431 868c25,-51 108,153 170,222 175,-850 -99,-353 463,-923l773 -552zm-7643 -7690c1252,-22 9353,-323 10358,212 1117,593 -574,173 646,468l5 -1212 -11532 71 3 8493 2517 51c375,1161 781,2160 574,3486l-425 1218c-34,51 -93,101 -130,150 -404,544 -529,228 -546,1544 -921,116 -1290,-90 -1914,358 354,239 10089,735 11198,0 -663,-471 -928,-202 -1910,-394 -7,-998 136,-595 -286,-1223 -318,-474 -15,117 -404,-433 -35,-49 -84,-107 -116,-159 -958,-1607 -102,-2843 1020,-4081 751,-830 612,-308 1988,-629 -9,-2077 184,-4197 -209,-6237 -938,1074 519,7792 -1370,5667 -383,-431 -265,-2369 -393,-3046 -1372,-52 -6871,-470 -7799,209 1464,664 4635,-392 5871,530l-1321 307c-1265,48 -3482,-349 -4559,222 802,509 4536,282 5837,294l11 1667 -7113 -7 -1 -7526z"/>
  <path class="fil0" d="M5466 4147c744,496 6955,551 8209,154 -443,-814 -3126,-395 -4149,-395 -870,1 -3880,-132 -4060,241z"/>
 </g>
</svg>
