<?xml version="1.0" encoding="UTF-8"?>
<!DOCTYPE svg PUBLIC "-//W3C//DTD SVG 1.1//EN" "http://www.w3.org/Graphics/SVG/1.1/DTD/svg11.dtd">
<!-- Creator: CorelDRAW X8 -->
<svg xmlns="http://www.w3.org/2000/svg" xml:space="preserve" width="19.4094in" height="16.6535in" version="1.1" style="shape-rendering:geometricPrecision; text-rendering:geometricPrecision; image-rendering:optimizeQuality; fill-rule:evenodd; clip-rule:evenodd"
viewBox="0 0 19409 16654"
 xmlns:xlink="http://www.w3.org/1999/xlink">
 <defs>
  <style type="text/css">
   <![CDATA[
    .fil0 {fill:#316C2E}
   ]]>
  </style>
 </defs>
 <g id="Layer_x0020_1">
  <metadata id="CorelCorpID_0Corel-Layer"/>
  <path class="fil0" d="M3342 11427l1119 -109 2215 19 3162 -3 6430 1 -1 3673 -10540 -8 -632 4 -1757 -54 4 -3523zm13176 -4348c-807,139 276,103 -586,489 -976,438 -898,-151 -1351,-777 -262,302 -469,-686 -520,833l59 -1792 2969 72 -46 1597c-384,-754 371,-576 -525,-422zm-11594 -58c-713,748 -154,588 -855,668 -787,89 -629,-324 -722,-976 -1138,586 -502,-231 -931,783l110 -1713 3016 26 -447 1012c-62,60 -133,160 -171,200zm6891 703l-484 -750c-491,-885 65,273 -141,-428 -347,328 -202,155 -508,592 -42,61 -166,377 -211,493l-1341 56 -666 -1142 -576 1036c-142,-978 -37,-1621 259,-2289l3531 591c419,1573 -134,-1177 127,624 32,218 9,1012 10,1217zm3867 -4776c746,856 780,373 -54,1317l-601 -878 655 -439zm-11280 755c-128,992 108,149 -572,505 -690,-998 -519,-781 316,-1271 383,692 446,-706 256,766zm10005 -1275c-149,1466 -317,2414 646,2435l-1657 329 -396 2450c-1693,-731 2094,-4260 -5619,-3061l-588 2842c-17,-49 -65,207 -117,300 -500,-977 -310,-670 -512,-2465l-1622 -296c1717,-1481 451,-3600 -1674,-2326 -219,1673 -311,1445 574,2253l-1583 452c-6,48 -111,1195 -123,1250 -501,2321 -2958,761 -462,4030 409,536 128,278 667,687l749 4476 14278 2 49 -4142c1155,-935 300,376 1275,-1054 1948,-2860 480,-2115 -140,-3116 -317,-512 -237,-976 -451,-2019l-1543 -611c1527,-1807 241,-3094 -1751,-2416z"/>
  <path class="fil0" d="M10259 1905c489,1141 220,993 -105,1534 -2046,-134 -1271,-1890 105,-1534zm-1542 -702c-475,1527 -673,2181 805,3025 3126,-536 1547,-4216 -805,-3025z"/>
  <path class="fil0" d="M15174 12639c-425,-265 -829,-548 -1225,-840 -946,471 -372,343 -1416,630 81,325 272,1608 336,2102l1815 -37 490 -1855z"/>
  <path class="fil0" d="M11089 12573c-938,-360 -755,-410 -1484,-793 -761,791 103,334 -1167,687l372 2046 1797 21 482 -1961z"/>
  <path class="fil0" d="M7024 12509c-965,-307 -636,-164 -1297,-709 -713,539 -322,394 -1315,695 293,1060 -159,795 683,2015l1265 6c676,-1055 478,-586 664,-2007z"/>
 </g>
</svg>
