<?xml version="1.0" encoding="UTF-8"?>
<!DOCTYPE svg PUBLIC "-//W3C//DTD SVG 1.1//EN" "http://www.w3.org/Graphics/SVG/1.1/DTD/svg11.dtd">
<!-- Creator: CorelDRAW X8 -->
<svg xmlns="http://www.w3.org/2000/svg" xml:space="preserve" width="16.5354in" height="11.6929in" version="1.1" style="shape-rendering:geometricPrecision; text-rendering:geometricPrecision; image-rendering:optimizeQuality; fill-rule:evenodd; clip-rule:evenodd"
viewBox="0 0 16535 11693"
 xmlns:xlink="http://www.w3.org/1999/xlink">
 <defs>
  <style type="text/css">
   <![CDATA[
    .str0 {stroke:#2B2A29;stroke-width:6.94488}
    .fil61 {fill:none}
    .fil59 {fill:#EBECEC}
    .fil18 {fill:#2B2A29}
    .fil16 {fill:#2B2A29}
    .fil51 {fill:#FEE87E}
    .fil60 {fill:#FEE87E}
    .fil52 {fill:#D7C049}
    .fil62 {fill:#009846}
    .fil54 {fill:#006466}
    .fil55 {fill:#007D87}
    .fil21 {fill:#09424C}
    .fil22 {fill:#0C5A71}
    .fil49 {fill:#1A1A47}
    .fil31 {fill:#282C2D}
    .fil58 {fill:#33305B}
    .fil37 {fill:#383838}
    .fil19 {fill:#3A3A3A}
    .fil13 {fill:#3A3A3A}
    .fil48 {fill:#4C2311}
    .fil33 {fill:#525252}
    .fil39 {fill:#58595B}
    .fil40 {fill:#594A42}
    .fil3 {fill:#66341B}
    .fil44 {fill:#709E3E}
    .fil4 {fill:#723E24}
    .fil29 {fill:#75D9EF}
    .fil41 {fill:#81553A}
    .fil47 {fill:#93BC6C}
    .fil34 {fill:#A5A5AF}
    .fil36 {fill:#A7A9AC}
    .fil28 {fill:#B4EFF9}
    .fil26 {fill:#CE9006}
    .fil7 {fill:#D0E0E2}
    .fil0 {fill:#D5DBDA}
    .fil25 {fill:#D69507}
    .fil32 {fill:#D6D6D6}
    .fil17 {fill:#D8D8D8}
    .fil11 {fill:#E2E2E2}
    .fil15 {fill:#E5BB98}
    .fil38 {fill:#E6E7E8}
    .fil14 {fill:#E8C5A0}
    .fil6 {fill:#E8F6F7}
    .fil10 {fill:#EAEAEA}
    .fil42 {fill:#EFAF11}
    .fil2 {fill:#EFEFEF}
    .fil35 {fill:#F1F2F2}
    .fil12 {fill:#F4D5B5}
    .fil9 {fill:#F4F4F4}
    .fil27 {fill:#FAFEFF}
    .fil24 {fill:#FFD04D}
    .fil53 {fill:#FFD19F}
    .fil8 {fill:#FFE1BD}
    .fil20 {fill:#FFE1BD}
    .fil1 {fill:white}
    .fil23 {fill:black;fill-opacity:0.101961}
    .fil56 {fill:#00B3B7;fill-opacity:0.180392}
    .fil5 {fill:black;fill-opacity:0.301961}
    .fil46 {fill:#93BC6C;fill-opacity:0.384314}
    .fil57 {fill:#00B3B7;fill-opacity:0.450980}
    .fil30 {fill:white;fill-opacity:0.501961}
    .fil50 {fill:#3D3D72;fill-opacity:0.541176}
    .fil43 {fill:#EFAF11;fill-opacity:0.549020}
    .fil45 {fill:#93BC6C;fill-opacity:0.619608}
   ]]>
  </style>
   <clipPath id="id0">
    <path d="M10239 8811l577 138 682 3 706 -178 1266 2356 -172 711c0,0 -3994,287 -4101,197 -106,-91 -606,-575 -676,-764 -71,-189 1718,-2463 1718,-2463z"/>
   </clipPath>
 </defs>
 <g id="Layer_x0020_1">
  <metadata id="CorelCorpID_0Corel-Layer"/>
  <rect class="fil0" x="5219" y="129" width="8625" height="5095"/>
  <rect class="fil1" x="5458" y="229" width="8146" height="4895"/>
  <rect class="fil2" x="6056" y="455" width="6896" height="327"/>
  <rect class="fil2" x="10002" y="1408" width="2949.64" height="67.1968"/>
  <rect class="fil2" x="6407" y="1294" width="2949.64" height="67.1968"/>
  <rect class="fil2" x="9770" y="1571" width="3181.19" height="67.1968"/>
  <rect class="fil2" x="6175" y="1456" width="3181.19" height="67.1968"/>
  <rect class="fil2" x="9770" y="1734" width="3181.19" height="67.1968"/>
  <rect class="fil2" x="6175" y="1619" width="3181.19" height="67.1968"/>
  <rect class="fil2" x="9770" y="1897" width="3181.19" height="67.1968"/>
  <rect class="fil2" x="6175" y="1782" width="3181.19" height="67.1968"/>
  <rect class="fil2" x="9770" y="2059" width="3181.19" height="67.1968"/>
  <rect class="fil2" x="6175" y="1945" width="3181.19" height="67.1968"/>
  <rect class="fil2" x="9770" y="2222" width="3181.19" height="67.1968"/>
  <rect class="fil2" x="6175" y="2107" width="3181.19" height="67.1968"/>
  <rect class="fil2" x="9770" y="2385" width="3181.19" height="67.1968"/>
  <rect class="fil2" x="6175" y="2270" width="3181.19" height="67.1968"/>
  <rect class="fil2" x="9770" y="2548" width="3181.19" height="67.1968"/>
  <rect class="fil2" x="6175" y="2433" width="3181.19" height="67.1968"/>
  <rect class="fil2" x="10224" y="2710" width="2727.28" height="67.1968"/>
  <rect class="fil2" x="6629" y="2596" width="2727.28" height="67.1968"/>
  <path class="fil3" d="M14029 88c0,37 -30,66 -67,66l-8862 0c0,0 0,0 0,0 -36,0 -66,-29 -66,-66 0,0 0,0 0,0l0 0c0,0 0,0 0,0 0,-37 30,-67 66,-67 0,0 0,0 0,0l8862 0c37,0 67,30 67,67l0 0 0 0z"/>
  <path class="fil3" d="M14029 5265c0,37 -30,66 -67,66l-8862 0c0,0 0,0 0,0 -36,0 -66,-29 -66,-66 0,0 0,0 0,0l0 0c0,0 0,0 0,0 0,-37 30,-66 66,-66 0,0 0,0 0,0l8862 0c37,0 67,29 67,66l0 0z"/>
  <path class="fil4" d="M3750 11110l48 -2571 -171 0 48 2571c-1,3 -1,6 -1,9 0,21 17,38 38,38 22,0 39,-17 39,-38 0,-3 -1,-6 -1,-9l0 0z"/>
  <path class="fil4" d="M2178 10809l993 -2372 -159 -63 -904 2408c-3,6 -4,13 -4,19 0,16 8,31 22,38 3,1 6,2 10,2 19,0 36,-13 42,-32l0 0z"/>
  <path class="fil4" d="M5247 10809l-994 -2372 159 -63 904 2408c5,6 7,14 7,22 0,21 -17,38 -38,38 -19,0 -35,-14 -38,-33l0 0z"/>
  <g id="_1548361081408">
   <path class="fil5" d="M2985 8448l101 40 -934 2349c12,-6 21,-16 26,-28l993 -2372 -159 -63 -27 74z"/>
   <path class="fil5" d="M3628 8607l128 0 -48 2550c1,0 3,0 4,0 22,-3 38,-21 38,-43 0,-1 0,-3 0,-4l48 -2571 -171 0 1 68z"/>
   <path class="fil5" d="M5316 10782l-904 -2408 -159 63 19 44 98 -39 899 2394c5,3 12,5 19,5 3,0 7,0 11,-2 13,-7 22,-22 22,-38 0,-6 -2,-13 -5,-19l0 0z"/>
  </g>
  <path class="fil6" d="M4891 8660c-174,142 -431,272 -1084,284 -858,17 -1308,-80 -1552,-523 -407,-740 102,-3129 907,-2600 672,442 807,1855 896,2050 89,196 1254,447 833,789z"/>
  <path class="fil7" d="M3956 8761c-859,17 -1308,-80 -1552,-523 -278,-505 -129,-1778 250,-2368 -485,449 -711,1984 -399,2551 244,443 694,540 1552,523 653,-12 910,-142 1084,-284 59,-48 87,-94 91,-138 -174,123 -442,228 -1026,239z"/>
  <path class="fil8" d="M4323 3107c58,-169 113,-347 205,-257 96,95 89,83 53,215 -35,131 -308,185 -258,42z"/>
  <path class="fil8" d="M4428 2865c29,-80 77,-172 126,-210 49,-38 -25,95 -43,158 -18,62 -108,120 -83,52z"/>
  <path class="fil9" d="M4349 3783c69,-259 103,-597 103,-597l-129 -87c0,0 -263,541 -405,951l-734 -188 -89 -18 239 476c0,0 706,103 749,79 44,-24 195,-352 266,-616z"/>
  <path class="fil10" d="M4083 4399c-43,24 -749,-79 -749,-79l-239 -476 89 18c66,28 173,134 260,248 62,81 97,111 191,146 145,54 298,93 356,97 98,6 107,11 128,-17 0,2 0,4 0,6 0,24 -14,47 -36,57z"/>
  <path class="fil9" d="M2357 5283c29,74 44,154 44,234 0,47 -5,93 -15,138 -55,247 7,264 7,264 0,0 335,212 613,299 200,62 370,51 365,-169l0 -3c-1,-13 -1,-26 -1,-38 -10,-495 94,-520 119,-1074 26,-569 -126,-886 -276,-1024 -151,-137 -357,-142 -744,-50 -290,68 -386,145 -384,360 4,89 14,178 32,265 48,271 162,596 240,798z"/>
  <path class="fil11" d="M2357 5283c29,74 44,154 44,234 0,47 -5,93 -15,138 -55,247 7,264 7,264 0,0 335,212 613,299l260 -25 104 -82 1 -65c-1,-13 -1,-26 -1,-38 -49,3 -98,5 -147,5 -82,0 -164,-5 -246,-16 -131,-16 -261,-49 -385,-96 -58,-22 -97,-78 -97,-140 0,-9 1,-18 2,-27 22,-113 34,-230 37,-345 -1,-109 -52,-293 -93,-426 -25,-81 -37,-165 -37,-250 0,-21 1,-43 2,-65 4,-59 6,-118 6,-177 0,-61 -2,-122 -6,-182l-206 -111 -115 42c3,89 14,178 31,265 49,271 163,596 241,798z"/>
  <path class="fil12" d="M2353 6333c-24,4 -85,-103 -85,-103l25 -34c15,-19 35,-33 58,-40l4 -1c5,-2 10,-3 15,-3 16,0 31,8 40,22 18,25 45,55 76,54l1 0c0,0 1,0 2,0 1,0 1,0 1,0 28,1 -114,101 -137,105z"/>
  <path class="fil13" d="M3293 2868c0,0 25,98 -14,155l-160 -216 111 -1 63 62z"/>
  <path class="fil8" d="M2425 3179c7,279 248,440 248,440l-16 254 162 105 111 72 64 -134 9 -163c2,-38 29,-70 66,-78 62,-15 117,-48 158,-95 4,-4 8,-8 11,-13l0 0c105,-143 145,-693 -215,-849 -373,-162 -605,182 -598,461z"/>
  <path class="fil14" d="M2830 3826l-11 152 111 72 64 -134 9 -163c2,-38 29,-70 66,-78 62,-15 117,-48 158,-95 4,-4 8,-8 11,-13 -71,39 -148,63 -227,71 -98,10 -174,90 -181,188l0 0z"/>
  <path class="fil13" d="M2814 3265c-14,6 -27,-16 -27,-16 0,0 -78,-175 -105,-202 -48,-49 -162,-45 -171,106 -7,117 131,365 173,438 3,4 4,9 4,14 0,8 -4,16 -11,22 -4,3 -10,5 -15,5l-2 0c0,0 -1,0 -1,0 -6,0 -12,-2 -17,-6 -89,-78 -481,-454 -170,-808 0,0 247,16 285,135 27,92 49,187 65,282 16,94 7,24 -8,30z"/>
  <path class="fil11" d="M2659 3755c-32,20 -59,48 -79,80 35,16 68,33 100,53 43,26 248,170 248,170l60 -124c0,0 -214,-147 -329,-179z"/>
  <path class="fil11" d="M2988 3934c0,0 71,25 93,78 0,0 37,-70 -10,-195 -21,-19 -44,-36 -69,-50l-14 167z"/>
  <path class="fil15" d="M2419 6159c15,19 31,37 49,53 11,7 13,-7 9,-16 -4,-9 -56,-50 -58,-37z"/>
  <path class="fil16" d="M2662 3632l-2 0c0,0 -1,0 -1,0 -6,0 -12,-2 -17,-6 -89,-78 -481,-454 -170,-808 -7,28 -10,56 -10,85 0,9 0,18 1,28 1,9 -199,321 199,701z"/>
  <ellipse class="fil17" cx="2855" cy="11170" rx="1293" ry="98"/>
  <path class="fil18" d="M2216 10794c17,66 11,89 17,132 9,52 57,72 85,115 31,48 80,124 -110,128 -203,4 -324,-10 -289,-125 34,-115 41,-165 39,-203 -3,-37 0,-76 23,-99 23,-22 205,-62 235,52z"/>
  <path class="fil19" d="M2259 7143c0,0 -321,-512 134,-1224 0,0 355,159 639,178 224,15 338,-8 338,-8 0,0 19,685 19,1054l-1130 0 0 0z"/>
  <path class="fil20" d="M2475 8631c88,-370 -276,-435 -391,-168 -163,379 -150,2042 -141,2283 1,32 17,26 35,20 52,-19 95,-27 116,-22 41,13 81,29 119,50 35,-329 177,-1805 262,-2163z"/>
  <path class="fil19" d="M2802 7193c39,-459 -136,-816 -411,-665 -116,64 -158,192 -174,312 -15,121 -100,1371 -130,1597 -67,510 320,372 362,231 106,-356 333,-1224 353,-1475z"/>
  <path class="fil20" d="M3450 8607c14,-345 -274,-325 -391,-57 -251,579 2,1812 54,2393 56,-94 163,-125 188,-123 25,2 48,15 63,35 -9,-713 70,-1879 86,-2248z"/>
  <path class="fil19" d="M3072 8644c43,141 414,304 375,-209 -17,-227 -63,-1482 -72,-1603 -9,-121 -29,-298 -87,-320 -293,-111 -577,250 -500,705 52,303 195,1135 284,1427z"/>
  <path class="fil18" d="M3363 10865c15,30 89,99 190,145 102,45 318,67 198,107 -120,40 -260,15 -330,4 -65,-9 -132,-14 -197,-14 -9,0 -18,1 -26,1 -110,-1 -111,-8 -96,-132 20,-171 211,-207 261,-111z"/>
  <path class="fil10" d="M1910 5804c111,117 216,242 313,371l29 -20c0,0 -168,-234 -247,-329 -122,-145 -208,-258 -280,-392 -73,-133 -107,-391 -69,-463 38,-72 253,-391 299,-452 46,-61 422,-437 314,-541 -13,-11 -30,-17 -47,-17 -4,0 -9,1 -13,2 -33,13 -61,37 -80,67 -130,210 -496,776 -554,916 -9,23 -16,47 -20,72 -1,8 -3,16 -3,24 -23,230 205,608 358,762z"/>
  <path class="fil19" d="M2510 6141c0,0 -52,182 -282,287 -198,90 317,142 329,122 11,-20 111,-353 111,-353l-158 -56z"/>
  <path class="fil4" d="M6460 10966l49 -2587 -172 0 48 2587c-1,2 -1,5 -1,8 0,22 17,39 39,39 21,0 38,-17 38,-39 0,-3 0,-6 -1,-8l0 0z"/>
  <path class="fil4" d="M4879 10663l999 -2387 -160 -63 -909 2422c-4,7 -7,14 -7,22 0,22 17,39 39,39 19,0 35,-14 38,-33l0 0z"/>
  <path class="fil4" d="M7967 10663l-1000 -2387 160 -63 910 2422c4,7 7,14 7,22 0,22 -18,39 -39,39 -19,0 -36,-14 -38,-33l0 0z"/>
  <g id="_1548361071328">
   <path class="fil5" d="M5691 8287l101 40 -939 2364c12,-6 21,-16 26,-28l999 -2387 -160 -63 -27 74z"/>
   <path class="fil5" d="M6338 8447l128 0 -48 2565c2,1 3,1 5,1 22,-3 38,-22 38,-44 0,-1 0,-2 -1,-3l49 -2587 -172 0 1 68z"/>
   <path class="fil5" d="M8037 10635l-910 -2422 -160 63 19 44 98 -39 905 2408c5,4 12,6 19,6 4,0 8,-1 11,-2 14,-8 22,-22 22,-38 0,-7 -1,-14 -4,-20l0 0z"/>
  </g>
  <path class="fil6" d="M7676 7493c0,993 -561,1230 -1253,1230 -692,0 -1253,-237 -1253,-1230 0,-992 561,-1951 1253,-1951 692,0 1253,959 1253,1951z"/>
  <path class="fil7" d="M6523 8500c-692,0 -1252,-238 -1252,-1230 0,-333 62,-664 182,-975 -177,342 -283,767 -283,1198 0,993 561,1230 1253,1230 542,0 1004,-146 1178,-687 -218,359 -619,464 -1078,464z"/>
  <path class="fil21" d="M5805 7234c0,0 -148,343 -178,572 -44,334 21,479 413,493 393,13 507,-70 694,-70 187,0 404,-387 163,-846l-1092 -149z"/>
  <path class="fil8" d="M6193 10172l18 129c0,0 -5,316 8,409 21,163 81,402 150,387 78,-17 135,-125 143,-336 6,-142 -69,-413 -63,-479 7,-66 20,-195 20,-195l-276 85z"/>
  <path class="fil22" d="M6481 10179c0,0 186,-1682 210,-1889 24,-207 1,-587 -302,-593 -262,-6 -292,388 -292,627 0,239 75,1820 75,1820 0,0 -10,92 144,87 155,-5 165,-52 165,-52z"/>
  <g id="_1548361069728">
   <path class="fil23" d="M6301 7712c-80,171 -79,459 -80,620 0,239 84,1851 84,1851 0,0 42,12 133,33 -7,1 -14,2 -21,3 -6,1 -13,3 -19,5 -159,43 -218,-49 -218,-49 0,0 -83,-1612 -83,-1851 0,-209 23,-536 204,-612z"/>
  </g>
  <path class="fil8" d="M5553 10236l9 130c0,0 -45,390 -39,484 9,164 70,269 139,259 79,-11 134,-65 158,-274 15,-142 1,-405 12,-471 11,-66 3,-193 3,-193l-282 65z"/>
  <path class="fil22" d="M5840 10264c0,0 305,-1664 344,-1869 38,-205 42,-586 -260,-614 -260,-25 -319,367 -336,605 -17,239 -55,1821 -55,1821 0,0 -16,91 138,97 155,6 169,-40 169,-40z"/>
  <g id="_1548361069088">
   <path class="fil23" d="M5835 7790c-91,165 -111,452 -123,613 -17,238 -48,1852 -48,1852 0,0 41,15 130,42 -13,1 -27,2 -40,5 -162,32 -214,-63 -214,-63 0,0 31,-1614 48,-1853 15,-208 62,-533 247,-596z"/>
  </g>
  <path id="_Path_2" class="fil8" d="M5979 4494c-25,36 -38,79 -38,123 0,16 2,32 5,47 6,59 55,103 114,103l12 -106 -28 -186 -65 19z" data-name="&lt;Path&gt;"/>
  <path id="_Path_3" class="fil8" d="M6883 4494c25,36 38,79 38,123 0,16 -2,32 -5,47 -6,59 -55,103 -114,103l-13 -106 28 -186 66 19z" data-name="&lt;Path&gt;"/>
  <path id="_Path_4" class="fil24" d="M6949 6557c-3,36 -4,72 -4,108 0,61 4,122 11,182 11,123 53,575 53,575 -83,30 -170,53 -256,69 -217,41 -591,-70 -938,-188 0,0 57,-333 59,-590 3,-271 16,-341 -15,-629 -9,-72 -13,-146 -13,-220 0,-10 0,-22 0,-32 -31,-227 38,-449 38,-449 0,0 286,-120 406,-136 0,0 215,-49 365,1 197,65 305,103 393,152 9,5 67,173 42,320 -37,217 -92,514 -121,693 -12,71 -19,123 -20,144z" data-name="&lt;Path&gt;"/>
  <path id="_Path_6" class="fil8" d="M6851 4372c0,108 -22,361 -90,528 -37,95 -105,176 -192,229 0,44 -1,101 29,105 9,20 20,25 14,55 -21,108 -146,228 -177,257 -31,30 -50,0 -50,0 -36,-41 -67,-87 -92,-135 -16,-29 -28,-56 -35,-75 -5,-11 -7,-22 -7,-34 0,-19 5,-36 15,-52 34,-4 21,-75 19,-113 -65,-46 -125,-125 -171,-217 -90,-185 -95,-420 -95,-548 0,-230 186,-416 416,-416 230,0 416,186 416,416 0,0 0,0 0,0l0 0z" data-name="&lt;Path&gt;"/>
  <path id="_Path_7" class="fil14" d="M6564 5131c-25,9 -125,48 -144,90 -22,49 -34,127 -55,149 -21,18 -46,31 -72,41 -16,-29 -28,-56 -35,-75 -5,-11 -7,-22 -7,-34 0,-19 5,-36 15,-52 34,-4 21,-75 19,-113 40,16 83,24 126,24 1,0 3,0 5,0 50,-5 100,-15 148,-30l0 0z" data-name="&lt;Path&gt;"/>
  <path id="_Path_9" class="fil25" d="M7048 5400c0,0 188,96 177,242 -19,252 -64,645 -162,998 -70,249 -250,461 -337,667 0,0 -222,2 -196,-33 77,-211 224,-452 300,-761 69,-285 28,-641 101,-840 41,-113 117,-273 117,-273z" data-name="&lt;Path&gt;"/>
  <path id="_Path_10" class="fil25" d="M5872 7278c-58,-239 -175,-453 -242,-771 -28,-230 91,-842 113,-992 4,-24 14,-46 29,-65 4,-5 9,-10 14,-14 30,-22 71,-79 98,-53 48,46 53,676 31,836l-15 247 181 783c28,60 -209,29 -209,29z" data-name="&lt;Path&gt;"/>
  <path id="_Path_12" class="fil26" d="M6268 5248c0,0 21,194 117,298 0,0 -32,-10 -91,61 -3,3 -7,5 -12,5 -7,0 -13,-4 -14,-11 -19,-79 -78,-272 -45,-339 9,-10 21,-15 34,-15 4,0 7,0 11,1l0 0z" data-name="&lt;Path&gt;"/>
  <path id="_Path_13" class="fil26" d="M6595 5234c-16,56 -35,112 -58,166 -28,55 -64,106 -107,151 -43,44 74,13 108,62 2,3 6,5 10,5 5,0 9,-3 11,-8 22,-42 35,-81 59,-169 28,-100 29,-155 26,-196 -8,-10 -20,-15 -32,-15 -6,0 -12,1 -17,4l0 0z" data-name="&lt;Path&gt;"/>
  <polygon class="fil27" points="4367,7137 4405,6410 4049,6410 4087,7137 "/>
  <polygon class="fil28" points="4118,7103 4085,6444 4368,6444 4335,7103 "/>
  <polygon class="fil29" points="4096,6605 4118,7103 4335,7103 4357,6605 "/>
  <g id="_1548361063616">
   <path class="fil30" d="M4141 7032l59 0 -35 -519c-7,-63 -65,-66 -56,5l32 514z"/>
  </g>
  <rect class="fil31" x="3224" y="7236" width="1648" height="103"/>
  <rect class="fil32" x="3240" y="7134" width="1493.1" height="82.8031"/>
  <rect class="fil33" x="3162" y="7197" width="1648.32" height="39.5197"/>
  <rect class="fil34" x="3270" y="7166" width="1431.77" height="8.53937"/>
  <rect class="fil34" x="3270" y="7184" width="1431.77" height="8.53937"/>
  <rect class="fil34" x="3270" y="7146" width="1431.77" height="8.53937"/>
  <rect class="fil35" x="10665" y="7151" width="681" height="169"/>
  <rect class="fil36" x="11131" y="7151" width="215" height="169"/>
  <rect class="fil36" x="10623" y="7151" width="680.716" height="19.3976"/>
  <rect class="fil36" x="10623" y="7301" width="680.716" height="19.3976"/>
  <rect class="fil37" x="11149" y="7151" width="888" height="169"/>
  <rect class="fil36" x="11245" y="7191" width="475.236" height="90.3622"/>
  <rect class="fil38" x="11270" y="7195" width="424.035" height="80.626"/>
  <ellipse class="fil36" cx="11914" cy="7236" rx="56" ry="45"/>
  <rect class="fil36" x="10705" y="7182" width="388.228" height="17.0787"/>
  <rect class="fil36" x="10705" y="7248" width="388.228" height="17.0591"/>
  <rect class="fil36" x="10705" y="7272" width="388.228" height="17.0591"/>
  <rect class="fil36" x="10827" y="7220" width="241.898" height="17.0591"/>
  <rect class="fil36" x="10705" y="7220" width="102.279" height="17.0591"/>
  <rect class="fil35" x="10537" y="6986" width="681" height="169"/>
  <rect class="fil36" x="11003" y="6986" width="215" height="169"/>
  <rect class="fil36" x="10495" y="6986" width="680.716" height="19.4173"/>
  <rect class="fil36" x="10495" y="7136" width="680.716" height="19.3976"/>
  <rect class="fil39" x="11021" y="6986" width="888" height="169"/>
  <rect class="fil36" x="11117" y="7026" width="475.236" height="90.3622"/>
  <rect class="fil38" x="11142" y="7031" width="424.035" height="80.626"/>
  <ellipse class="fil36" cx="11785" cy="7071" rx="56" ry="45"/>
  <rect class="fil36" x="10577" y="7017" width="388.228" height="17.0591"/>
  <rect class="fil36" x="10577" y="7083" width="388.228" height="17.0591"/>
  <rect class="fil36" x="10577" y="7107" width="388.228" height="17.0787"/>
  <rect class="fil36" x="10699" y="7055" width="241.898" height="17.0591"/>
  <rect class="fil36" x="10577" y="7055" width="102.279" height="17.0591"/>
  <rect class="fil35" x="10665" y="6821" width="681" height="169"/>
  <rect class="fil36" x="11131" y="6821" width="215" height="169"/>
  <rect class="fil36" x="10623" y="6821" width="680.716" height="19.3976"/>
  <rect class="fil36" x="10623" y="6971" width="680.716" height="19.3976"/>
  <rect class="fil40" x="11149" y="6821" width="888" height="169"/>
  <rect class="fil36" x="11245" y="6861" width="475.236" height="90.3622"/>
  <rect class="fil38" x="11270" y="6866" width="424.035" height="80.626"/>
  <ellipse class="fil36" cx="11914" cy="6906" rx="56" ry="45"/>
  <rect class="fil36" x="10705" y="6852" width="388.228" height="17.0591"/>
  <rect class="fil36" x="10705" y="6918" width="388.228" height="17.0787"/>
  <rect class="fil36" x="10705" y="6943" width="388.228" height="17.0787"/>
  <rect class="fil36" x="10827" y="6890" width="241.898" height="17.0591"/>
  <rect class="fil36" x="10705" y="6890" width="102.279" height="17.0591"/>
  <polygon class="fil27" points="12096,7316 12134,6757 11778,6757 11816,7316 "/>
  <polygon class="fil28" points="11848,7282 11815,6791 12097,6791 12064,7282 "/>
  <polygon class="fil29" points="11825,6952 11848,7282 12064,7282 12087,6952 "/>
  <g id="_1549787496368">
   <path class="fil30" d="M11871 7210l59 0 -35 -351c-7,-62 -66,-66 -57,6l33 345z"/>
  </g>
  <path class="fil41" d="M4912 6748c15,124 97,231 214,276 0,0 0,0 0,0 1,0 2,0 2,-1 0,-1 0,-2 -1,-2 -113,-53 -197,-146 -212,-273 -1,-2 -4,-2 -3,0l0 0 0 0z"/>
  <path class="fil41" d="M5116 6560c23,52 35,109 35,166 0,105 -40,206 -112,283 0,1 -1,1 -1,1 0,1 1,2 2,2 1,0 1,0 2,0 73,-76 114,-177 114,-283 0,-59 -13,-117 -38,-170 0,-2 -3,-1 -2,1l0 0 0 0z"/>
  <path class="fil41" d="M5443 6630c60,77 26,167 -12,245 -34,70 -103,103 -171,132 -1,1 -1,1 -1,2 0,2 1,3 3,3 0,0 0,0 0,0 87,-31 152,-79 187,-164 32,-77 52,-151 -3,-221 -2,-2 -5,1 -3,3l0 0 0 0z"/>
  <path class="fil41" d="M5407 6877c8,1 17,2 25,2 50,0 96,-24 126,-64 0,0 0,0 0,-1 0,-1 -1,-2 -2,-2 0,0 -1,1 -1,1 -33,39 -82,62 -133,62 -5,0 -10,-1 -14,-1 -1,0 -1,1 -1,1 0,1 0,1 0,2l0 0 0 0z"/>
  <path class="fil41" d="M5250 6586c-10,84 -32,227 -117,269 0,0 -1,1 -1,1 0,1 1,2 2,2 0,0 0,0 1,0 89,-33 110,-192 118,-272 0,-2 -3,-2 -3,0l0 0 0 0z"/>
  <path class="fil41" d="M4758 6704c12,94 93,164 187,164 3,0 6,0 8,0 1,0 2,-1 2,-2 0,0 -1,-1 -2,-1 0,0 -1,0 -1,0 -95,0 -176,-69 -191,-162 -1,-2 -3,-1 -3,1l0 0 0 0z"/>
  <path class="fil24" d="M5545 6929l-705 0c0,0 -57,138 -57,172 0,34 77,104 161,104l497 0c84,0 162,-70 162,-104 0,-34 -58,-172 -58,-172z"/>
  <polygon class="fil42" points="5470,7241 4915,7241 4934,7205 5451,7205 "/>
  <path class="fil42" d="M4997 7101c0,-34 57,-172 57,-172l-214 0c0,0 -57,138 -57,172 0,34 77,104 161,104l215 0c-84,0 -162,-70 -162,-104z"/>
  <polygon class="fil43" points="4934,7205 4915,7241 5129,7241 5149,7205 "/>
  <path class="fil44" d="M5166 6673c16,-13 79,-35 122,-8 50,30 83,83 88,142 -33,8 -67,11 -101,11 -5,0 -11,0 -16,0 -132,-10 -123,-122 -93,-145z"/>
  <path class="fil44" d="M5488 6603c10,-10 53,-27 83,-10 36,19 60,55 65,95 -26,8 -53,12 -80,12 -91,-3 -88,-80 -68,-97z"/>
  <path class="fil44" d="M5459 6557c-8,-4 -16,-5 -25,-5 -12,0 -23,3 -33,9 -20,17 -31,41 -31,67 0,2 0,4 0,6 6,1 12,1 18,1 12,0 25,-1 37,-3 61,-14 49,-66 34,-75z"/>
  <path class="fil44" d="M4831 6623c-10,-5 -22,-8 -34,-8 -3,0 -7,0 -11,1 -28,5 -49,30 -49,59 0,8 1,15 4,22 10,17 27,27 47,27 36,5 79,-23 115,-35 -16,-29 -41,-53 -72,-66l0 0z"/>
  <path class="fil44" d="M4925 6716c-15,7 -25,22 -26,39 4,21 22,36 43,36 0,0 0,0 1,0 21,1 94,-19 126,-3 -55,-104 -110,-94 -144,-72z"/>
  <path class="fil44" d="M5547 6752c-13,5 -23,16 -26,30 0,1 0,2 0,3 0,16 11,30 27,33 15,4 72,-2 92,16 0,-79 -64,-95 -93,-82z"/>
  <path class="fil44" d="M5155 6853c17,-5 80,-10 107,24 48,62 6,116 1,135 -34,-5 -67,-15 -98,-28 -105,-49 -68,-122 -10,-131z"/>
  <path class="fil44" d="M4924 6864c-15,-5 -67,-4 -88,29 -17,25 -26,55 -26,85 0,18 3,35 8,51 30,-4 59,-13 87,-25 90,-46 48,-130 19,-140z"/>
  <path class="fil44" d="M5092 6554c17,2 30,12 37,27 2,4 2,8 2,12 0,15 -9,29 -23,36 -16,8 -83,15 -102,41 2,-114 51,-124 86,-116z"/>
  <g id="_1548368823680">
   <path class="fil45" d="M4738 6665c8,-1 17,-1 26,-1 47,0 94,10 137,29 1,1 2,-1 1,-1 -42,-20 -88,-30 -134,-30 -10,0 -20,1 -30,2 -1,0 -1,1 0,1l0 0z"/>
   <path class="fil45" d="M4757 6652c16,-5 32,-7 48,-7 27,0 54,7 77,20 0,0 0,0 1,0 0,0 0,0 0,-1 0,0 0,0 0,-1 -23,-14 -49,-21 -76,-21 -17,0 -34,3 -50,9 0,0 0,0 0,0 0,1 0,1 0,1 0,0 0,0 0,0l0 0 0 0z"/>
   <path class="fil45" d="M4748 6672c18,39 82,34 115,25 1,0 1,-1 1,-1 0,-1 0,-1 -1,-1 0,0 0,0 0,0 -33,8 -96,14 -114,-23 0,-1 -1,-1 -1,0l0 0 0 0z"/>
   <path class="fil45" d="M4914 6731c15,-6 30,-9 45,-9 41,0 79,22 99,58 0,0 0,0 1,0 0,0 0,0 0,0 0,-1 0,-1 0,-1 -19,-36 -57,-59 -98,-59 -17,0 -32,3 -47,10 0,0 0,0 0,0 0,1 0,1 0,1 0,0 0,0 1,0l-1 0 0 0z"/>
   <path class="fil45" d="M4921 6738c45,6 88,18 129,36 1,0 1,-1 1,-1 -41,-20 -85,-32 -130,-36 0,0 0,1 0,1l0 0 0 0z"/>
   <path class="fil45" d="M4907 6750c36,21 77,32 119,32 6,0 12,0 19,-1 1,0 1,-2 0,-1 -5,0 -11,0 -16,0 -42,0 -84,-11 -121,-31 0,0 0,0 -1,0 0,0 0,0 0,1 0,0 0,0 0,0l0 0 0 0z"/>
   <path class="fil45" d="M5010 6665c24,-39 58,-71 99,-92 0,-1 0,-1 0,-1 0,-1 0,-1 -1,-1 0,0 0,0 0,0 -42,20 -77,53 -99,93 0,0 0,0 0,1 0,0 0,0 1,0 0,0 0,0 0,0l0 0 0 0z"/>
   <path class="fil45" d="M5052 6645c33,-13 60,-37 77,-68 0,0 0,0 0,0 0,-1 0,-1 -1,-1 0,0 0,0 -1,0 -17,30 -43,54 -75,68 -1,0 0,1 0,1l0 0 0 0z"/>
   <path class="fil45" d="M5011 6637c12,-42 49,-72 92,-74 1,0 1,-1 1,-1 0,-1 0,-1 -1,-1 -44,1 -83,32 -93,76 0,0 0,0 0,0 0,0 0,1 0,1 1,0 1,0 1,-1l0 0 0 0z"/>
   <path class="fil45" d="M5377 6636c18,-29 43,-52 73,-68 0,0 1,-1 1,-1 0,-1 -1,-1 -1,-1 -1,0 -1,0 -1,0 -31,15 -56,39 -73,69 0,0 0,0 0,1 0,0 0,0 1,0 0,0 0,0 0,0l0 0z"/>
   <path class="fil45" d="M5408 6621c25,-9 45,-27 57,-50 0,0 0,-1 0,-1 0,0 0,0 -1,0 0,0 0,0 0,0 -13,22 -33,40 -56,50 -1,0 0,1 0,1l0 0 0 0z"/>
   <path class="fil45" d="M5378 6615c8,-31 36,-53 68,-55 1,0 1,0 1,-1 0,0 0,-1 -1,-1 -33,1 -62,25 -69,57 0,0 0,0 0,0 0,1 0,1 0,1 1,0 1,0 1,-1l0 0z"/>
   <path class="fil45" d="M4824 7019c29,-56 70,-105 118,-145 1,0 1,0 1,-1 0,0 -1,0 -1,0 0,0 0,0 0,0 -51,38 -92,88 -119,146 -1,0 1,1 1,0l0 0 0 0z"/>
   <path class="fil45" d="M4818 7021c-1,-6 -2,-13 -2,-20 0,-66 47,-122 111,-135 0,0 1,0 1,-1 0,0 -1,-1 -1,-1 0,0 0,0 0,0 -65,12 -113,69 -113,135 0,8 1,15 2,23 0,1 2,0 2,-1l0 0 0 0z"/>
   <path class="fil45" d="M4830 7018c66,-6 118,-59 122,-125 0,-1 -1,-1 -2,0 -5,65 -55,117 -120,123 -1,0 -1,2 0,2l0 0 0 0z"/>
   <path class="fil45" d="M5132 6867c56,24 96,74 110,134 0,0 0,0 1,0 0,0 0,0 0,-1 0,0 0,0 0,0 -12,-60 -54,-110 -111,-134 0,-1 -1,0 0,1l0 0 0 0z"/>
   <path class="fil45" d="M5139 6870c61,9 129,30 127,105 0,0 0,0 0,0 1,0 1,0 1,0 6,-76 -67,-98 -127,-107 -1,0 -2,1 -1,2l0 0 0 0z"/>
   <path class="fil45" d="M5136 6880c-12,57 45,89 90,105 0,0 0,0 0,0 1,0 1,0 1,-1 0,0 0,0 0,0 -43,-20 -102,-46 -90,-104 1,-1 -1,-1 -1,0l0 0z"/>
   <path class="fil45" d="M5162 6694c1,83 122,109 187,109 0,0 0,0 0,0 0,-1 0,-1 0,-1 -65,-2 -183,-25 -186,-108 0,0 0,0 0,0 -1,0 -1,0 -1,0l0 0z"/>
   <path class="fil45" d="M5178 6705c57,40 118,73 183,98 1,1 1,-1 1,-1 -65,-25 -126,-58 -183,-98 -1,0 -1,0 -1,1l0 0 0 0z"/>
   <path class="fil45" d="M5180 6691c72,14 137,52 184,109 0,1 2,-1 1,-2 -46,-57 -112,-96 -185,-108 -1,0 -1,1 0,2l0 0 0 -1z"/>
   <path class="fil45" d="M5187 6672c92,-6 171,29 181,129 0,1 0,1 0,1 1,0 1,0 1,-1 0,-39 -18,-76 -49,-101 -38,-31 -86,-33 -133,-30 0,0 0,2 0,2l0 0 0 0z"/>
   <path class="fil45" d="M5479 6622c6,59 94,70 141,66 0,0 1,0 1,0 0,0 -1,-1 -1,-1 -47,2 -132,-6 -141,-65 0,-1 0,-1 0,-1 0,0 0,0 0,1l0 0 0 0z"/>
   <path class="fil45" d="M5491 6628c43,25 90,46 138,60 0,0 0,0 0,0 1,0 1,0 1,-1 0,0 0,0 0,-1 -49,-14 -95,-34 -139,-59 0,0 0,0 0,0 0,0 0,0 0,1 0,0 0,0 0,0l0 0 0 0z"/>
   <path class="fil45" d="M5491 6619c53,5 102,29 140,66 0,0 0,0 0,0 1,0 1,0 1,-1 0,0 0,0 0,0 -37,-39 -87,-62 -141,-66 0,0 0,1 0,1l0 0 0 0z"/>
   <path class="fil45" d="M5496 6604c65,-8 124,11 138,82 0,0 0,1 0,1 1,0 1,-1 1,-1 -2,-28 -17,-54 -41,-70 -20,-11 -43,-17 -66,-17 -11,0 -22,2 -32,4 -1,0 -1,1 -1,1 0,0 1,0 1,0 0,0 0,0 0,0l0 0z"/>
   <path class="fil46" d="M5522 6785c7,11 17,18 29,21 12,4 25,2 37,4 18,4 35,10 50,20 0,0 0,0 0,0 1,0 1,0 1,0 0,0 0,0 0,0 -18,-12 -38,-19 -59,-22 -21,-3 -44,-2 -57,-23 0,0 0,-1 0,-1 0,0 -1,1 -1,1 0,0 0,0 0,0l0 0 0 0z"/>
   <path class="fil45" d="M5530 6774c41,1 80,20 105,52 0,0 0,0 0,0 1,0 1,0 1,0 0,0 0,0 0,0 -25,-33 -64,-53 -105,-53 0,0 -1,0 -1,0 0,0 0,1 0,1 0,0 0,0 0,0l0 0 0 0z"/>
   <path class="fil45" d="M5542 6767c8,-2 16,-4 24,-4 32,0 61,23 68,54 0,1 0,1 0,1 1,0 1,-1 1,-1 0,0 0,0 0,0 -7,-32 -36,-55 -69,-55 -8,0 -16,1 -24,4 0,0 0,1 1,1l0 0 -1 0z"/>
  </g>
  <path class="fil47" d="M4768 6740c-14,-13 -72,-35 -110,-8 -49,34 -80,88 -87,148 25,4 51,7 76,7 13,0 25,-1 37,-2 120,-10 111,-122 84,-145z"/>
  <path class="fil47" d="M5435 6615c-13,-9 -59,-22 -86,2 -32,27 -50,67 -50,110 0,2 0,4 0,6 13,2 27,3 41,3 14,0 28,-1 41,-3 92,-17 76,-103 54,-118z"/>
  <path class="fil47" d="M5145 6482c-13,5 -23,17 -26,30 0,1 0,2 0,3 0,16 11,30 27,34 15,4 72,-3 92,16 0,-79 -64,-96 -93,-83z"/>
  <path class="fil47" d="M5414 6859c14,-8 68,-26 99,-3 57,42 33,95 33,112 -12,1 -25,2 -37,2 -19,0 -37,-1 -55,-4 -104,-19 -88,-87 -40,-107z"/>
  <path class="fil44" d="M4578 6875c24,-15 46,-33 66,-53 31,-31 68,-54 108,-70 1,0 1,-2 0,-2 -74,23 -111,87 -175,123 0,0 0,1 0,1 0,1 0,1 1,1 0,0 0,0 0,0l0 0 0 0z"/>
  <path class="fil44" d="M4578 6867c17,-29 37,-57 57,-83 31,-35 68,-43 113,-42 2,0 2,-2 1,-2 -93,-15 -130,59 -172,126 0,0 0,0 0,0 0,1 1,1 1,1 0,0 0,0 0,0l0 0 0 0z"/>
  <path class="fil44" d="M4601 6879c70,-4 187,-18 168,-116 0,-1 -1,-1 -1,-1 -1,0 -2,0 -2,1 1,30 -4,62 -30,82 -35,26 -93,29 -135,32 -1,0 -1,2 0,2l0 0 0 0z"/>
  <path class="fil44" d="M4585 6876c36,-12 75,-19 109,-34 34,-15 49,-45 66,-76 0,-1 0,-1 0,-1 0,0 0,-1 -1,-1 0,0 0,0 0,1 -24,38 -42,66 -86,82 -28,11 -59,18 -88,27 -1,1 -1,3 1,2l0 0 -1 0z"/>
  <path class="fil44" d="M5141 6504c34,9 65,27 89,52 1,0 1,0 1,0 0,0 0,0 0,-1 0,0 0,0 0,0 -24,-27 -55,-45 -90,-52 0,0 0,0 0,0 -1,0 -1,0 -1,1 0,0 0,0 1,0l0 0z"/>
  <path class="fil44" d="M5127 6514c4,9 13,16 23,18 21,7 42,13 64,19 0,0 0,0 0,0 0,0 1,0 1,-1 0,0 -1,0 -1,0 -14,-5 -27,-10 -41,-14 -14,-4 -38,-7 -44,-23 0,-1 -2,0 -2,1l0 0 0 0z"/>
  <path class="fil44" d="M5141 6498c5,-1 9,-1 14,-1 35,0 67,22 79,55 0,0 1,0 1,-1 -10,-34 -42,-57 -77,-57 -6,0 -12,1 -17,2 -2,0 -1,2 0,2l0 0 0 0z"/>
  <path class="fil44" d="M5309 6730c41,-28 82,-59 122,-89 0,0 0,0 0,0 0,-1 0,-1 0,-1 0,0 0,0 0,0 -44,26 -81,61 -123,89 0,1 0,1 1,1l0 0 0 0z"/>
  <path class="fil44" d="M5320 6729c46,-8 99,-36 117,-82 0,0 0,0 0,0 0,0 0,-1 -1,-1 0,0 0,0 0,1 -24,44 -67,74 -117,81 0,0 0,1 0,1l0 0 1 0z"/>
  <path class="fil44" d="M5307 6724c23,-44 63,-78 111,-92 0,0 0,0 0,0 0,-1 0,-1 0,-1 0,0 0,0 0,0 -50,13 -91,47 -113,92 0,1 0,1 0,1 0,0 0,1 1,1 0,0 0,-1 1,-1l0 0z"/>
  <path class="fil44" d="M5329 6730c3,1 7,1 11,1 29,0 56,-8 80,-24 14,-8 23,-22 23,-38 0,-5 -1,-11 -3,-15 0,-1 -1,-1 -1,0 20,62 -71,74 -110,75 -1,0 -1,1 -1,1 0,0 0,0 1,0l0 0z"/>
  <path class="fil44" d="M5303 6716c13,-55 49,-99 110,-95 1,0 1,-2 0,-2 -61,-7 -99,42 -111,96 0,0 0,0 0,0 0,1 0,1 0,1 1,0 1,0 1,0l0 0 0 0z"/>
  <path class="fil44" d="M5429 6865c42,27 79,61 111,99 0,1 1,0 0,-1 -31,-39 -68,-72 -110,-99 0,0 0,0 0,0 -1,0 -1,0 -1,1 0,0 0,0 0,0l0 0z"/>
  <path class="fil44" d="M5434 6862c52,7 95,45 108,96 1,0 1,0 1,0 0,0 1,0 1,-1 0,0 0,0 0,0 -13,-51 -57,-90 -109,-96 -1,0 -1,1 -1,1l0 0z"/>
  <path class="fil44" d="M5445 6858c4,0 8,0 13,0 22,0 44,8 62,22 14,15 23,35 23,56 0,3 0,5 -1,7 0,1 1,1 1,1 0,0 1,0 1,-1 0,-3 0,-6 0,-9 0,-21 -8,-41 -23,-55 -17,-15 -39,-22 -62,-22 -4,0 -9,0 -14,1 0,0 0,1 0,0l0 0 0 0z"/>
  <path class="fil44" d="M5425 6865c-31,46 82,93 111,99 0,0 0,0 0,0 1,0 1,0 1,-1 0,0 0,0 -1,0 -27,-8 -138,-52 -110,-97 1,-1 0,-1 -1,-1l0 0z"/>
  <path class="fil44" d="M5413 6870c-10,7 -16,18 -16,30 0,10 4,20 12,26 24,29 70,38 106,38 0,0 1,0 1,-1 0,0 -1,0 -1,0 -22,-1 -44,-5 -64,-13 -27,-10 -83,-49 -38,-79 0,0 1,0 1,-1 0,0 -1,0 -1,0 0,0 0,0 0,0l0 0z"/>
  <rect class="fil48" x="3588" y="7460" width="197" height="3871"/>
  <rect class="fil48" x="11688" y="7460" width="197" height="3871"/>
  <rect class="fil48" x="3189" y="7347" width="9095" height="171"/>
  <rect class="fil3" x="3093" y="7313" width="9285.88" height="76.5433"/>
  <rect class="fil33" x="4707" y="7274" width="1962.91" height="39.5"/>
  <path class="fil32" d="M6587 7223c0,0 -776,-46 -890,34 -157,-72 -907,-34 -907,-34l0 51 1797 0 0 -51z"/>
  <path class="fil34" d="M6587 7257c-75,-6 -149,-11 -224,-15 -74,-4 -149,-8 -223,-10 -75,-2 -150,-2 -224,0 -37,2 -75,4 -112,8 -18,2 -36,6 -54,10 -18,3 -35,9 -51,19l-2 1 -2 -1c-17,-7 -35,-12 -54,-16 -18,-3 -37,-6 -56,-8 -37,-5 -75,-7 -113,-8 -76,-3 -152,-3 -228,-2 -75,2 -151,5 -227,9 -76,3 -152,7 -228,13 152,-14 303,-24 455,-27 76,-2 152,-3 228,-1 38,2 76,4 114,8 19,2 38,5 57,8 19,3 37,9 55,16l-4 1c17,-10 35,-17 54,-20 18,-4 37,-7 56,-9 37,-5 74,-7 112,-8 74,-2 149,-1 224,1 149,5 298,16 447,31z"/>
  <path class="fil34" d="M6587 7257c-75,-2 -149,-4 -223,-5 -74,-1 -149,-2 -223,-3 -74,0 -148,0 -223,1 -37,1 -74,2 -111,5 -18,1 -37,2 -55,4 -18,2 -36,5 -54,10l-1 0 -1 0c-18,-3 -37,-5 -56,-6 -18,-1 -37,-2 -56,-2 -37,-2 -75,-2 -112,-3 -76,0 -151,0 -226,1l-451 6 225 -8 226 -4c75,-1 150,-2 226,-2 37,0 75,1 112,2 19,0 38,1 57,2 19,1 38,3 57,6l-3 0c18,-5 37,-8 56,-10 19,-2 37,-3 56,-4 37,-2 74,-3 111,-4 75,-1 149,0 223,0 75,1 149,3 223,5 74,3 149,5 223,9z"/>
  <polygon class="fil8" points="10427,10628 10460,10824 10609,10824 10673,10813 10626,10508 "/>
  <path id="_Path_16" class="fil49" d="M10647 10572c-15,6 -30,12 -45,18 -64,19 -129,33 -194,43 -179,-294 -642,-1721 -642,-1721 -43,-181 228,50 341,43 6,0 12,0 18,0 29,0 58,5 86,16 107,45 265,350 265,350 0,0 49,105 99,323 50,218 72,928 72,928z" data-name="&lt;Path&gt;"/>
  <path id="_Path_17" class="fil50" d="M10647 10572c-15,6 -30,12 -45,18 -12,-87 -28,-226 -53,-447 -56,-494 -369,-1061 -442,-1188 6,0 12,0 18,0 29,0 58,5 86,16 107,45 265,350 265,350 0,0 49,105 99,323 50,218 72,928 72,928z" data-name="&lt;Path&gt;"/>
  <path id="_Path_18" class="fil49" d="M10450 10795c1,0 2,0 3,0 38,0 75,-6 111,-17 36,-13 69,-34 96,-61 28,-27 159,97 159,271 0,9 -6,17 -15,20 -8,3 -380,169 -511,215 -69,22 -139,41 -210,55 -2,0 -3,0 -5,0 -8,0 -14,-4 -17,-10 -7,-18 -10,-49 28,-79 59,-45 124,-82 169,-119 44,-38 90,-141 126,-171 31,-28 53,-64 66,-104l0 0z" data-name="&lt;Path&gt;"/>
  <path id="_Path_19" class="fil1" d="M9803 7299l-1815 0 -359 -1129c-3,-9 -4,-18 -4,-27 0,-49 40,-88 88,-88 0,0 0,0 0,0l1630 0c0,0 0,0 0,0 38,0 72,24 84,61l376 1183z" data-name="&lt;Path&gt;"/>
  <path id="_Path_20" class="fil51" d="M9774 7299l-1738 0 -356 -1109c-2,-8 -4,-17 -4,-26 0,-48 39,-86 87,-86 0,0 0,0 1,0l1554 0c0,0 0,0 0,0 38,0 72,24 83,60l373 1161z" data-name="&lt;Path&gt;"/>
  <path id="_Path_21" class="fil52" d="M8658 6370l-439 2c-6,0 -12,-9 -12,-21l0 0c0,-12 5,-22 12,-22l438 -2c7,0 12,9 12,21l0 0c0,0 0,0 0,0 0,12 -5,22 -11,22l0 0z" data-name="&lt;Path&gt;"/>
  <path id="_Path_21_0" class="fil52" d="M8619 6279l-439 3c-6,0 -12,-10 -12,-22l0 0c0,-12 5,-21 12,-21l438 -3c7,0 12,10 12,22l0 0c0,0 0,0 0,0 0,11 -5,21 -11,21l0 0z" data-name="&lt;Path&gt;"/>
  <path id="_Path_22" class="fil52" d="M8735 6488l-489 3c-7,0 -12,-9 -12,-21l0 0c0,-12 5,-22 12,-22l489 -2c6,-1 12,9 12,21l0 0c0,12 -5,21 -12,21l0 0z" data-name="&lt;Path&gt;"/>
  <path id="_Path_23" class="fil52" d="M8719 6596l-426 2c-6,0 -12,-9 -12,-21l0 0c0,-12 5,-21 12,-21l426 -3c6,0 12,10 12,21l0 0c0,0 0,0 0,0 0,12 -5,22 -12,22l0 0z" data-name="&lt;Path&gt;"/>
  <path id="_Path_24" class="fil52" d="M8662 6697l-338 2c-7,0 -12,-10 -12,-22l0 0c0,-11 5,-21 12,-21l337 -2c7,0 12,10 12,21l0 0c0,12 -5,22 -11,22l0 0z" data-name="&lt;Path&gt;"/>
  <path id="_Path_25" class="fil52" d="M8821 6797l-489 3c-7,0 -12,-10 -12,-21l0 0c0,-12 5,-22 12,-22l489 -3c6,0 12,10 12,22l0 0c0,0 0,0 0,0 0,11 -5,21 -12,21 0,0 0,0 0,0l0 0z" data-name="&lt;Path&gt;"/>
  <path id="_Path_26" class="fil52" d="M8799 6888l-425 3c-7,0 -12,-10 -12,-22l0 0c-1,-11 5,-21 11,-21l426 -2c7,0 12,9 12,21l0 0c0,12 -5,21 -12,21l0 0z" data-name="&lt;Path&gt;"/>
  <path id="_Path_27" class="fil52" d="M8860 6976l-490 3c-6,0 -11,-10 -12,-22l0 0c0,-11 6,-21 12,-21l489 -3c7,0 12,10 12,21l0 0c0,0 0,0 0,0 0,12 -5,22 -11,22l0 0z" data-name="&lt;Path&gt;"/>
  <path id="_Path_28" class="fil52" d="M8878 7074l-489 3c-7,0 -12,-9 -12,-21l0 0c0,-12 5,-21 12,-21l489 -3c0,0 0,0 0,0 6,0 12,9 12,21 0,0 0,0 0,0l0 0c0,12 -6,21 -12,21 0,0 0,0 0,0l0 0z" data-name="&lt;Path&gt;"/>
  <path id="_Path_29" class="fil52" d="M8138 7131c-6,-4 -33,-23 -41,-46l-247 -726c-2,-6 -3,-12 -4,-18 -4,-34 6,-83 27,-86 52,-7 124,-2 178,-3 0,0 0,0 0,0 17,-3 33,13 42,37l246 726c2,6 3,12 4,18 5,33 -12,92 -33,95 -1,0 -138,-1 -172,3z" data-name="&lt;Path&gt;"/>
  <g id="_Group_" data-name="&lt;Group&gt;">
   <path id="_Compound_Path_" class="fil49" d="M10525 5706c0,0 0,0 0,0 -18,0 -34,-9 -43,-24l-66 -116c-4,-7 -6,-16 -6,-24 0,-19 10,-35 26,-44l183 -97c7,-3 15,-5 23,-5 18,0 35,10 43,26l63 114c4,7 6,15 6,24 0,18 -10,34 -26,43l-179 98c-8,3 -16,5 -24,5 0,0 0,0 0,0l0 0zm140 -293c0,0 0,0 0,0 -4,0 -8,1 -12,3l-183 96c-8,5 -14,14 -14,24 0,4 1,9 4,13l0 0 65 115c5,9 14,14 23,14 5,0 9,-1 13,-3l180 -98c8,-5 13,-14 13,-23 0,-5 -1,-9 -3,-13l-62 -115c-4,-11 -14,-18 -26,-18 -8,0 -16,4 -21,11l23 -6z" data-name="&lt;Compound Path&gt;"/>
  </g>
  <path id="_Path_31" class="fil8" d="M9690 6813c-7,9 -15,18 -23,27 -8,8 -95,-73 -122,-80 -27,-6 -84,15 -116,17 -32,1 -35,-18 -35,-18 0,0 -124,52 -143,57 -20,4 -34,-2 -21,-34 6,-11 13,-22 22,-31l1 0c42,-48 129,-124 160,-139 40,-19 94,-46 137,-30 44,16 186,122 186,122 4,37 -24,81 -46,109z" data-name="&lt;Path&gt;"/>
  <path id="_Path_32" class="fil53" d="M9730 6727l-29 102c-7,10 -15,19 -23,27 -8,9 -96,-72 -123,-79 -26,-7 -83,14 -115,16 -33,2 -35,-17 -35,-17 0,0 -124,51 -144,56 -20,5 -33,-2 -21,-33 6,-12 14,-22 23,-31 -10,14 -22,29 -15,48 8,22 141,-41 237,-99 1,-1 9,-4 11,0 0,4 -2,8 -5,11 -16,17 -96,23 -80,48 23,36 105,-30 150,-15 36,15 71,33 102,56 31,23 26,-77 67,-90z" data-name="&lt;Path&gt;"/>
  <path id="_Path_33" class="fil54" d="M9676 6868c0,0 507,443 886,488 379,45 1018,-674 1018,-674 0,0 -40,-383 -276,-338 -237,45 -554,615 -691,641 -137,27 -871,-282 -871,-282 -33,15 -78,129 -66,165l0 0z" data-name="&lt;Path&gt;"/>
  <path id="_Path_34" class="fil8" d="M11336 4904c-129,-147 -319,-163 -465,-147 -193,19 -357,152 -415,337 -13,40 -19,83 -19,125 0,52 9,103 27,152 120,330 245,541 362,604 45,23 130,8 221,-24 3,-1 6,-2 9,-2 9,0 18,5 22,14l39 71 337 -73c-27,-62 -50,-127 -66,-193 49,-62 183,-595 -52,-864z" data-name="&lt;Path&gt;"/>
  <path id="_Path_35" class="fil13" d="M10653 5375c3,0 6,0 9,0 39,0 74,22 89,58 28,66 71,158 104,188 6,4 13,6 19,6 7,0 13,-2 19,-5 10,-5 17,-15 17,-27 0,0 0,-1 0,-2 -10,-45 -23,-89 -39,-132 -5,-11 -8,-23 -8,-35 0,-43 31,-80 74,-87 6,-1 12,-2 18,-2 13,0 25,2 37,5 100,30 31,187 29,269 -1,57 68,191 98,203 101,40 253,4 333,-96 81,-99 99,-433 55,-632 -45,-199 -204,-312 -257,-324 -15,-4 -30,-6 -46,-6 -5,0 -11,0 -16,1 -2,0 -4,0 -6,0 -14,0 -28,-5 -38,-15 -53,-46 -212,-152 -463,-43 -218,89 -277,113 -277,349 0,6 37,102 38,108 3,85 -51,177 -4,162 7,-2 14,-3 22,-3 19,0 37,7 51,19 34,27 76,43 119,43 8,0 15,-1 23,-2l0 0z" data-name="&lt;Path&gt;"/>
  <path id="_Path_36" class="fil55" d="M11106 6088c0,0 -29,-32 -18,-52 14,-24 162,-142 335,-135 27,1 60,1 92,71 18,37 32,76 40,117l-449 0 0 -1z" data-name="&lt;Path&gt;"/>
  <path id="_Path_37" class="fil55" d="M11765 8927c-11,3 -22,5 -34,8 -147,27 -386,30 -386,30 -471,-8 -709,-447 -786,-578 -14,-25 -27,-50 -37,-77 27,-14 347,-187 330,-776 -4,-122 -2,-396 -63,-502 -34,-58 -133,-176 -195,-301 -51,-103 -77,-209 -21,-291 138,-203 357,-312 357,-312 0,0 401,-160 742,-124 217,23 410,125 461,398 133,702 -368,2525 -368,2525z" data-name="&lt;Path&gt;"/>
  <path id="_Path_38" class="fil56" d="M10983 7380c58,579 -337,944 -424,1007 -14,-25 -27,-50 -37,-77 27,-14 328,-276 330,-776 0,-122 -2,-396 -63,-502 -34,-58 -133,-176 -195,-301l27 -10 160 -27 82 67c0,0 82,243 120,619z" data-name="&lt;Path&gt;"/>
  <path id="_Path_39" class="fil57" d="M11765 8927c-11,3 -22,5 -34,8 30,-159 221,-1153 283,-1514 122,-712 -5,-1072 -77,-1202 -58,-104 -170,-159 -265,-215 217,23 410,125 461,398 133,702 -368,2525 -368,2525z" data-name="&lt;Path&gt;"/>
  <path id="_Path_40" class="fil8" d="M9453 11052c-35,14 -73,21 -112,21 -69,0 -89,-26 -89,-26l0 -157 228 -30 -27 192z" data-name="&lt;Path&gt;"/>
  <path id="_Path_41" class="fil18" d="M11244 8846c-2,102 -29,266 -182,312 -230,69 -399,30 -665,-16 -223,-39 -809,-165 -917,-206 -2,-1 -4,-1 -7,-1 -10,0 -18,8 -18,19 0,1 0,2 0,3 51,249 92,356 125,729 27,314 -93,1201 -93,1201 -25,7 -51,13 -76,17 -15,3 -29,4 -44,4 -42,-1 -85,-4 -127,-10 -42,-7 -238,-1307 -270,-1836 -32,-529 18,-573 259,-685 240,-112 1316,-71 1316,-71l0 0c3,10 64,175 242,325 132,108 289,182 457,215l0 0z" data-name="&lt;Path&gt;"/>
  <path class="fil58" d="M10590 8398c-17,-29 -33,-60 -45,-92l0 0c0,0 -13,0 -34,-1 24,32 50,64 79,93l0 0z"/>
  <path class="fil18" d="M11096 8804c-22,78 -69,154 -165,183 -230,68 -399,29 -665,-16 -223,-39 -809,-165 -917,-206 -2,-1 -4,-1 -7,-1 -10,0 -18,8 -18,18 0,2 0,3 0,4 51,249 92,356 125,729 21,244 12,1040 7,1380 18,-5 31,-8 31,-8 0,0 120,-887 93,-1201 -33,-373 -74,-480 -125,-729 0,-1 0,-2 0,-3 0,-11 8,-19 18,-19 3,0 5,0 7,1 108,41 694,167 917,206 266,46 435,85 665,16 153,-46 180,-210 182,-312 -50,-11 -100,-25 -148,-42l0 0z"/>
  <path id="_Path_42" class="fil49" d="M9248 11025c36,14 74,22 113,24 0,0 1,0 1,0 38,0 76,-8 111,-24 34,-15 114,147 53,309 -3,9 -11,14 -20,14 0,0 0,0 0,0l-770 0c0,0 0,0 0,0 -10,0 -17,-7 -17,-16 -1,-19 7,-49 54,-64 71,-21 144,-34 199,-53 55,-19 134,-100 178,-115 39,-16 72,-42 98,-75l0 0z" data-name="&lt;Path&gt;"/>
  <path id="_Path_43" class="fil8" d="M8949 7324c0,0 -68,-18 -104,-25 -13,-3 -25,-5 -38,-6 -6,0 -11,0 -16,0 -10,0 -20,0 -29,2l-368 51c-1,0 -2,0 -3,0 -9,0 -18,-7 -19,-17 0,-2 0,-4 0,-6 0,-12 5,-24 14,-32l36 -31 108 -93c53,-46 95,-54 165,-57 26,3 52,8 76,15 72,13 89,22 137,31 13,3 27,6 40,7 2,0 4,0 7,0 3,0 6,0 9,-1 6,20 9,41 9,62 0,35 -8,69 -24,100l0 0z" data-name="&lt;Path&gt;"/>
  <path id="_Path_45" class="fil55" d="M10907 6320c-51,-32 -208,-119 -410,196 -202,315 -364,552 -435,594 -70,43 -244,12 -307,12 -62,0 -786,28 -786,28 -26,56 -24,110 -32,171 -9,61 627,127 1148,129 521,2 917,-786 935,-881 18,-95 11,-173 -113,-249z" data-name="&lt;Path&gt;"/>
  <g id="_Group_2" data-name="&lt;Group&gt;">
   <path id="_Path_46" class="fil49" d="M10442 5628c0,0 0,0 0,0 -6,0 -11,-5 -11,-11 0,-4 2,-8 6,-10l425 -218c48,-24 146,-75 219,32 1,2 2,4 2,7 0,6 -5,11 -11,11 -4,0 -8,-2 -10,-5 -57,-83 -125,-58 -189,-25l-425 218c-2,1 -4,1 -6,1z" data-name="&lt;Path&gt;"/>
  </g>
  <path id="_Path_47" class="fil8" d="M10869 5416l51 164c10,10 23,15 37,15 16,0 32,-7 41,-21 39,-44 72,-197 2,-223 -71,-26 -113,11 -131,65z" data-name="&lt;Path&gt;"/>
  <path class="fil6" d="M12798 7788c0,-827 -19,-1410 -543,-1498 -713,-119 -1270,498 -1156,1680 65,678 -212,910 -449,1043 -153,85 -449,67 -449,67 0,0 -137,-16 -229,-25 57,26 1277,628 2148,183 771,-394 678,-964 678,-1450z"/>
  <polygon class="fil16 str0" points="2194,2660 3162,2369 3293,2868 2357,3160 "/>
  <polygon class="fil16 str0" points="10227,4796 11334,4497 11484,5008 10413,5307 "/>
  <path class="fil8" d="M2555 3220l197 -46c-74,-210 -219,-237 -241,-21l44 67z"/>
  <path class="fil19" d="M2318 5883c329,157 681,187 1052,122 157,-10 193,189 100,253l0 4179 -1581 0 122 -1868 171 -1622 136 -1064z"/>
  <path class="fil8" d="M2333 6056l56 80c6,-1 12,-1 19,-1 54,0 105,30 130,79 48,94 -121,211 -169,168 -48,-43 -153,-243 -153,-243l117 -83z"/>
  <path class="fil9" d="M1910 5804c111,117 216,242 313,371l29 -20 112 -76c0,0 -229,-480 -294,-714 -28,-98 -74,-190 -135,-272 4,-4 8,-8 13,-13 166,-177 295,-405 394,-544 47,-67 79,-144 94,-225 5,-29 7,-59 7,-88 0,-26 -2,-53 -6,-78 -14,-88 -51,-169 -135,-190 -12,-2 -24,-4 -36,-4 -20,0 -39,4 -57,12 -33,13 -61,37 -80,67 -130,210 -496,776 -554,916 -9,23 -16,47 -20,72 -1,8 -3,16 -3,24 -23,230 205,608 358,762z"/>
  <ellipse class="fil59" cx="3018" cy="4140" rx="27" ry="31"/>
  <ellipse class="fil59" cx="3024" cy="4554" rx="27" ry="31"/>
  <ellipse class="fil59" cx="3031" cy="4968" rx="27" ry="31"/>
  <ellipse class="fil59" cx="3037" cy="5383" rx="27" ry="31"/>
  <polygon class="fil60" points="9161,6906 9470,6342 9667,6956 "/>
  <path class="fil20" d="M9573 6673l15 -12 -39 -79c-31,2 -124,14 -147,27 -21,4 -34,39 -13,48 0,6 113,-6 184,16z"/>
  <path class="fil13" d="M6058 4049l15 354c-14,25 -28,51 -42,76 17,19 24,51 27,90 3,5 11,2 14,-7 14,-50 28,-111 53,-144l632 -2c26,33 35,165 46,152 9,5 27,-74 47,-84l-22 -344 -318 -146 -452 55z"/>
  <rect class="fil18 str0" x="6020" y="3945" width="857" height="533"/>
  <path class="fil18 str0" d="M5384 10557l1324 0c43,-776 -66,-2193 127,-2328 159,-123 240,-346 242,-711l-1369 -4c-68,201 -169,518 -147,672 -5,295 -54,591 -15,884 2,543 -108,991 -162,1487z"/>
  <path class="fil18" d="M5811 10736c19,72 12,97 19,144 10,59 11,90 42,138 34,53 30,182 -179,186 -224,4 -248,-66 -210,-193 38,-126 46,-182 43,-224 -3,-41 0,-84 25,-109 26,-25 227,-69 260,58z"/>
  <path class="fil18" d="M6502 10716c19,72 12,98 19,145 9,58 11,90 42,137 34,53 30,182 -179,186 -224,5 -248,-66 -210,-192 38,-127 46,-183 43,-224 -3,-42 0,-85 25,-110 26,-24 227,-69 260,58z"/>
  <path class="fil18" d="M9184 9330l30 1599 273 -42 1196 -310c15,-515 -62,-997 -254,-1341l-457 -181 796 -117 -1355 -369 -229 761z"/>
  <g>
  </g>
  <g style="clip-path:url(#id0)">
   <g>
    <path class="fil4" d="M11238 11660l55 -2969 -197 0 55 2969c1,30 20,54 43,54 24,0 43,-24 44,-54z"/>
    <path class="fil4" d="M9423 11313l1147 -2739 -184 -73 -1044 2780c-10,28 -1,58 20,66 22,9 49,-7 61,-34z"/>
    <path class="fil4" d="M12966 11313l-1147 -2739 184 -73 1044 2780c10,28 1,58 -20,66 -22,9 -49,-7 -61,-34z"/>
    <path class="fil5" d="M10354 8586l117 46 -1078 2713c13,-7 24,-18 30,-32l1147 -2739 -184 -73 -32 85z"/>
    <path class="fil5" d="M11097 8769l147 0 -55 2945c2,0 4,0 6,0 23,0 42,-24 43,-54l55 -2969 -197 0 1 78z"/>
    <path class="fil5" d="M13047 11281l-1044 -2780 -184 73 21 50 114 -45 1038 2764c6,4 14,6 22,6 4,0 8,0 13,-2 21,-8 30,-38 20,-66z"/>
   </g>
  </g>
  <path class="fil61" d="M10239 8811l577 138 682 3 706 -178 1266 2356 -172 711c0,0 -3994,287 -4101,197 -106,-91 -606,-575 -676,-764 -71,-189 1718,-2463 1718,-2463z"/>
  <path class="fil7" d="M12798 7788c0,-827 -19,-1410 -543,-1498 -25,-4 -50,-7 -75,-9 -571,56 -945,657 -845,1690 65,677 -213,910 -449,1042 -153,86 -449,67 -449,67 0,0 -7,-2 -20,-6 -48,5 -98,8 -147,8 -23,0 -46,-1 -69,-2 -23,-1 -137,-16 -229,-25 57,26 1277,628 2148,183 771,-394 678,-964 678,-1450z"/>
  <path class="fil18 str0" d="M9956 9053c359,76 644,36 844,-139l-374 -241c-157,127 -313,254 -470,380z"/>
  <rect class="fil18 str0" x="7287" y="7117" width="500" height="197"/>
  <rect class="fil62" x="7420" y="6989" width="253" height="128"/>
 </g>
</svg>
