<?xml version="1.0" encoding="UTF-8"?>
<!DOCTYPE svg PUBLIC "-//W3C//DTD SVG 1.1//EN" "http://www.w3.org/Graphics/SVG/1.1/DTD/svg11.dtd">
<!-- Creator: CorelDRAW X8 -->
<svg xmlns="http://www.w3.org/2000/svg" xml:space="preserve" width="19.4094in" height="16.6535in" version="1.1" style="shape-rendering:geometricPrecision; text-rendering:geometricPrecision; image-rendering:optimizeQuality; fill-rule:evenodd; clip-rule:evenodd"
viewBox="0 0 19409 16654"
 xmlns:xlink="http://www.w3.org/1999/xlink">
 <defs>
  <style type="text/css">
   <![CDATA[
    .fil0 {fill:#316C2E}
   ]]>
  </style>
 </defs>
 <g id="Layer_x0020_1">
  <metadata id="CorelCorpID_0Corel-Layer"/>
  <path class="fil0" d="M13260 11397l1414 4011 -1587 8 173 -4019zm-828 -73c385,4902 -69,4089 -1586,4058l1586 -4058zm-4574 -4620l60 2908 4394 34 -2045 5782 -3688 -140 -3 -8221 1282 -363zm-5289 3522c-589,-677 -513,-2452 -362,-3416 238,-1527 921,-1353 2461,-1355 3846,-5 3963,-2172 5623,-2126 -88,1759 -2608,2684 -4307,3291 -24,1477 -13,2955 -13,4432l-77 3597c-139,639 -79,413 -309,766 -441,-538 -149,28 -389,-766l-91 -2115c19,-1235 148,-1200 -326,-1944 -545,1044 -273,3330 -273,4826l-845 -5 -187 -8201c-1007,943 174,2000 -905,3016zm5139 -8223c892,-578 -941,-189 901,-481l9193 19c67,2068 -790,-1552 -713,3777 71,4950 53,2871 -692,4281 1742,-29 1365,800 1289,-4290 -57,-3796 726,-1376 806,-3310 71,-1714 37,-432 -285,-1064l-10931 43c-831,2763 517,861 581,2835 -2966,3254 -7272,-2457 -6172,6696l1341 543c135,6675 -154,2920 -2195,4795l15038 200c424,-10 704,-11 1107,-124 934,-263 98,190 612,-426l-2243 -254 -1973 -5620c1360,-24 1081,-33 1472,-381 -1103,-543 -4861,-226 -6352,-226 7,-3310 -110,-2443 777,-3329 3472,-3470 -371,-2841 6318,-2837l126 -605c-1967,-2 -6612,474 -8005,-242z"/>
  <path class="fil0" d="M4681 1626c1674,594 1239,1941 244,2090 -1138,171 -1643,-1150 -244,-2090zm648 2713c1791,-1434 1209,-3663 -934,-3277 -1494,270 -2140,3158 934,3277z"/>
  <path class="fil0" d="M16160 4441c-1530,661 65,803 -1605,1327 -1361,427 -886,-1 -1874,901 -984,-434 -908,-566 -1878,-78 -803,405 -1270,609 -1542,1388 2379,-294 755,-1462 3638,-575 1345,-1145 428,-890 2638,-1103l623 -1860z"/>
 </g>
</svg>
