<?xml version="1.0" encoding="UTF-8"?>
<!DOCTYPE svg PUBLIC "-//W3C//DTD SVG 1.1//EN" "http://www.w3.org/Graphics/SVG/1.1/DTD/svg11.dtd">
<!-- Creator: CorelDRAW X8 -->
<svg xmlns="http://www.w3.org/2000/svg" xml:space="preserve" width="19.4094in" height="16.6535in" version="1.1" style="shape-rendering:geometricPrecision; text-rendering:geometricPrecision; image-rendering:optimizeQuality; fill-rule:evenodd; clip-rule:evenodd"
viewBox="0 0 19409 16654"
 xmlns:xlink="http://www.w3.org/1999/xlink">
 <defs>
  <style type="text/css">
   <![CDATA[
    .fil0 {fill:#316C2E}
   ]]>
  </style>
 </defs>
 <g id="Layer_x0020_1">
  <metadata id="CorelCorpID_0Corel-Layer"/>
  <path class="fil0" d="M11933 12393l2848 123 -70 2461 -2734 37 -44 -2621zm-5776 -10339c1019,-8 2223,-135 2908,198 495,1169 290,10669 113,12689l-3159 24 138 -12911zm-3217 7043l2535 13 -69 5861 -2465 -109 -1 -5765zm9089 -846l2696 58 24 2737 -2784 32 64 -2827zm-56 -4232l2768 102 -4 2707 -2757 30 -7 -2839zm-9051 0l2548 113 -2 1737 -2547 39 1 -1889zm6864 -1221l1642 48c7,2141 148,1674 -1189,1712 1078,1033 974,-16 1204,1240l-28 6240 -1009 545c1067,547 1083,-387 973,2366l-1597 -111 4 -12040zm4930 -1566l28 1377 -2769 34 26 -1240c796,-399 1708,-293 2715,-171zm1997 3752c-530,1094 -217,5242 -208,6782 12,2226 357,2849 -441,3175 -1138,464 -798,-1536 -784,-2350 20,-1177 -353,-9855 302,-10427 1065,-928 855,1088 1131,1675 504,-616 351,-1286 215,-2114l-1424 -441c-1343,-723 -206,-793 -3714,-647 -779,1169 164,1030 -803,1522 -1148,268 -878,-691 -3554,-689 -2039,2 -1806,79 -2036,1985l-2804 190c-542,1615 -178,7209 -199,9783 -16,1896 -435,1358 -472,1949 2329,704 15774,663 15377,-364 -472,-1222 -258,-6107 -239,-7617 32,-2432 -208,-1897 -245,-2234 -11,-100 -58,-125 -102,-178z"/>
  <path class="fil0" d="M8070 4862l168 4172 -1070 21c-244,-818 -145,-1890 -144,-2764 0,-1220 -201,-1489 1046,-1429zm-1354 4626c1441,379 2024,408 2070,-1249 118,-4277 99,-4262 -2141,-3816 -317,1478 -378,3875 71,5065z"/>
  <path class="fil0" d="M3480 12927c454,280 225,312 691,306 837,-10 687,-328 783,-419 -518,-172 -1078,-356 -1474,113z"/>
 </g>
</svg>
