<?xml version="1.0" encoding="UTF-8"?>
<!DOCTYPE svg PUBLIC "-//W3C//DTD SVG 1.1//EN" "http://www.w3.org/Graphics/SVG/1.1/DTD/svg11.dtd">
<!-- Creator: CorelDRAW X8 -->
<svg xmlns="http://www.w3.org/2000/svg" xml:space="preserve" width="19.4094in" height="16.6535in" version="1.1" style="shape-rendering:geometricPrecision; text-rendering:geometricPrecision; image-rendering:optimizeQuality; fill-rule:evenodd; clip-rule:evenodd"
viewBox="0 0 19409 16654"
 xmlns:xlink="http://www.w3.org/1999/xlink">
 <defs>
  <style type="text/css">
   <![CDATA[
    .fil0 {fill:none}
    .fil1 {fill:#316C2E}
   ]]>
  </style>
 </defs>
 <g id="Layer_x0020_1">
  <metadata id="CorelCorpID_0Corel-Layer"/>
  <rect class="fil0" x="5" y="108" width="18451" height="16533"/>
  <path class="fil1" d="M8239 1923l8617 -12 2 12979 -8733 3 114 -12970zm9296 13677c510,-1597 172,-8308 189,-11093 3,-527 47,-1304 22,-1797l-373 -1633 -9729 56c-48,73 -90,174 -112,237 -258,732 -237,-1008 -287,1640l188 12735 10102 -145z"/>
  <path class="fil1" d="M5413 2137c1125,-633 700,239 950,-889 -2204,-824 -1855,689 -1838,2365 16,1581 5,3167 4,4748 -5,5284 -781,8560 1889,7113 -482,-1134 62,-52 -1036,-889l31 -12448z"/>
  <path class="fil1" d="M2742 2137c1397,-800 695,227 943,-889 -2187,-853 -1852,717 -1834,2365 17,1581 5,3167 5,4748 0,5155 -779,8583 1877,7113 -453,-1119 64,-64 -1021,-889l30 -12448z"/>
  <path class="fil1" d="M10582 8005c-1218,145 -526,-62 -986,456 595,504 159,411 1313,411 2667,0 4002,384 4621,-503 -607,-520 569,-11 -499,-287 -335,-86 -494,-69 -833,-83 -551,-24 -1235,17 -1807,14 -452,-2 -1416,-55 -1809,-8z"/>
  <path class="fil1" d="M10909 10965c2452,-2 4001,392 4631,-515 -805,-611 -5071,-498 -5897,-14 433,660 -202,531 1266,529z"/>
  <path class="fil1" d="M9628 6286c686,820 1821,489 3060,489 1380,1 2242,304 2821,-489 -709,-570 -4906,-629 -5881,0z"/>
  <path class="fil1" d="M10909 13080c1534,-1 1552,342 2008,-622 -607,-293 -809,-274 -1711,-265 -1061,9 -830,-61 -1544,317 365,657 -332,571 1247,570z"/>
  <path class="fil1" d="M9774 4211c289,222 -11,170 569,309l5061 -309c-870,-413 -1871,-248 -3013,-252 -1020,-4 -1855,-161 -2617,252z"/>
 </g>
</svg>
